<svg height="512pt" viewBox="0 0 512 512" width="512pt" xmlns="http://www.w3.org/2000/svg"><path d="m392 0h-317c-8.285156 0-15 6.714844-15 15v362c0 8.285156 6.714844 15 15 15h422c8.285156 0 15-6.714844 15-15v-257l-95-25zm0 0" fill="#008fd2"/><path d="m392 0h-106v392h211c8.285156 0 15-6.714844 15-15v-257l-95-25zm0 0" fill="#005f95"/><path d="m332 120h-317c-8.285156 0-15 6.714844-15 15v362c0 8.285156 6.714844 15 15 15h422c8.285156 0 15-6.714844 15-15v-257l-95-25zm0 0" fill="#feef55"/><path d="m332 120h-106v392h211c8.285156 0 15-6.714844 15-15v-257l-95-25zm0 0" fill="#fedc00"/><path d="m332 120v105c0 8.285156 6.714844 15 15 15h105zm0 0" fill="#46465a"/><path d="m392 0v105c0 8.285156 6.714844 15 15 15h105zm0 0" fill="#46465a"/><path d="m116 272h-20c-19.300781 0-35 15.699219-35 35v100c0 8.285156 6.714844 15 15 15s15-6.714844 15-15v-45h30v45c0 8.285156 6.714844 15 15 15s15-6.714844 15-15v-100c0-19.300781-15.699219-35-35-35zm-25 60v-25c0-2.757812 2.242188-5 5-5h20c2.757812 0 5 2.242188 5 5v25zm0 0" fill="#5a5a6e"/><path d="m226 272h-30c-8.285156 0-15 6.714844-15 15v120c0 8.285156 6.714844 15 15 15s15-6.714844 15-15v-45h15c24.8125 0 45-20.1875 45-45s-20.1875-45-45-45zm0 60h-15v-30h15c8.269531 0 15 6.730469 15 15s-6.730469 15-15 15zm0 0" fill="#5a5a6e"/><g fill="#46465a"><path d="m346 272h-30c-8.285156 0-15 6.714844-15 15v120c0 8.285156 6.714844 15 15 15s15-6.714844 15-15v-45h15c24.8125 0 45-20.1875 45-45s-20.1875-45-45-45zm0 60h-15v-30h15c8.269531 0 15 6.730469 15 15s-6.730469 15-15 15zm0 0"/><path d="m226 272v30c8.269531 0 15 6.730469 15 15s-6.730469 15-15 15v30c24.8125 0 45-20.1875 45-45s-20.1875-45-45-45zm0 0"/></g></svg>